<svg xmlns="http://www.w3.org/2000/svg" viewBox="0 0 64 64">
  <defs>
    <radialGradient id="bgGrad" cx="50%" cy="50%" r="50%">
      <stop offset="0%" stop-color="#40335e"/>
      <stop offset="100%" stop-color="#1b1528"/>
    </radialGradient>
    <radialGradient id="spiderGlow" cx="40%" cy="40%" r="60%">
      <stop offset="0%" stop-color="#a488f5"/>
      <stop offset="100%" stop-color="#3d2b63"/>
    </radialGradient>
  </defs>
  <rect width="64" height="64" rx="14" fill="url(#bgGrad)"/>
  <!-- Web threads -->
  <path d="M32 6 L32 58 M6 32 L58 32 M12 12 L52 52 M12 52 L52 12" stroke="#68578c" stroke-width="1.2" opacity="0.6"/>
  <circle cx="32" cy="32" r="16" fill="none" stroke="#68578c" stroke-width="1.2" opacity="0.5"/>
  <circle cx="32" cy="32" r="26" fill="none" stroke="#68578c" stroke-width="1" opacity="0.35"/>
  <!-- Cute Spider Body -->
  <ellipse cx="32" cy="35" rx="13" ry="11" fill="url(#spiderGlow)"/>
  <circle cx="32" cy="23" r="8" fill="url(#spiderGlow)"/>
  <!-- Spider Eyes -->
  <circle cx="28.5" cy="22" r="2.8" fill="#ffffff"/>
  <circle cx="35.5" cy="22" r="2.8" fill="#ffffff"/>
  <circle cx="29.2" cy="22" r="1.4" fill="#1b1528"/>
  <circle cx="34.8" cy="22" r="1.4" fill="#1b1528"/>
  <!-- Small Spade on Forehead -->
  <path d="M32 27 C31 29 29 30 29 31 C29 32.5 30.5 33.5 32 32 C33.5 33.5 35 32.5 35 31 C35 30 33 29 32 27 Z" fill="#e6c875"/>
</svg>
