<svg xmlns="http://www.w3.org/2000/svg" viewBox="0 0 64 64" width="64" height="64">
  <defs>
    <linearGradient id="cardGrad" x1="0%" y1="0%" x2="100%" y2="100%">
      <stop offset="0%" stop-color="#ffffff"/>
      <stop offset="100%" stop-color="#e2e8f0"/>
    </linearGradient>
    <filter id="cardShadow" x="-20%" y="-20%" width="140%" height="140%">
      <feDropShadow dx="1" dy="2" stdDeviation="2" flood-opacity="0.35"/>
    </filter>
  </defs>
  <rect width="64" height="64" rx="14" fill="#0f3d2e"/>
  <rect x="8" y="10" width="30" height="42" rx="4" fill="url(#cardGrad)" filter="url(#cardShadow)"/>
  <path d="M23 20 C23 20 18 14 13 19 C9 23 13 29 23 35 C33 29 37 23 33 19 C28 14 23 20 23 20 Z" fill="#e53e3e"/>
  <rect x="26" y="14" width="30" height="42" rx="4" fill="url(#cardGrad)" filter="url(#cardShadow)"/>
  <path d="M41 22 C39 25 35 27 35 30 C35 33 38 35 41 37 C41 39 39 42 38 43 L44 43 C43 42 41 39 41 37 C44 35 47 33 47 30 C47 27 43 25 41 22 Z" fill="#1a202c"/>
  <circle cx="39" cy="31" r="2.5" fill="#1a202c"/>
  <circle cx="43" cy="31" r="2.5" fill="#1a202c"/>
</svg>
