<svg xmlns="http://www.w3.org/2000/svg" viewBox="0 0 64 64"><defs><linearGradient id="g" x1="0" x2="1" y1="0" y2="1"><stop stop-color="#f6b36a"/><stop offset="1" stop-color="#d25355"/></linearGradient></defs><rect width="64" height="64" rx="18" fill="#fff2de"/><path d="M19 11h26v6l-3 4v27a7 7 0 0 1-7 7H29a7 7 0 0 1-7-7V21l-3-4z" fill="#ffffff" fill-opacity=".8" stroke="#b85e4f" stroke-width="2"/><path d="M24 31h16v17a5 5 0 0 1-5 5h-6a5 5 0 0 1-5-5z" fill="url(#g)"/><path d="M25 17h14" stroke="#b85e4f" stroke-width="3" stroke-linecap="round"/><path d="M27 35c4 2 7 2 10 0" stroke="#fff" stroke-opacity=".65" stroke-width="2" fill="none"/></svg>
